<svg id="Слой_1" data-name="Слой 1" xmlns="http://www.w3.org/2000/svg" viewBox="0 0 150 190"><defs><style>.cls-1{fill-rule:evenodd;}</style></defs><title>Монтажная область 47</title><path class="cls-1" d="M120.3,87.78l-.47,59.66-90.13-.63.2-59,10.76-8.63L42,46.31l70.42,2.84-.77,30.74ZM35.35,96.61,36,141l77.69-.12-.3-42.81L75,122.92Zm12-44.13-1,43.38,28.08,19.43L104.92,96l1.3-40.51ZM89,68c-4.27,4.31-8.74,3.8-10.65.46-1.74,3.16-9.65,5-10.36-2-2.49-.67-2.53,4-6.8,4a6.7,6.7,0,0,1-6.62-4.9l1.84-2.07s2.46,1.18,3.73,1.69c4-5.79,11.41-6.2,13.43.41,3.09-5.24,8.4-2.52,9.58.3,4.38-5.17,8.74-3.07,10.77-.68.37-.31,3.1-1.68,3.1-1.68L99.34,66C95.89,70.91,91.2,71,89,68Zm-24.63,10c1.51-1.2,5.43-2.33,7.52,1.11v0s0-.35,0-.37c4-3.55,9.48-2.84,10.48,1.48,4.75-6.06,8.57-1.77,11.43,1.52.94-.2,3.16-.75,3.16-.75l1.43,2.55c-3.77,3.85-8.58,2.5-11.18-.75-1,.11-7.64,7-10.16-1.33-1.63.08-3.62,6.13-9.27,1.08h0c-4.59,2.09-6.24-.32-6.85-1.09-1.72,1.76-3.45,1.25-5.81,1L55,79C57.9,78.63,57.88,73,64.33,77.94Zm-3.81,14.3c2.77-5.52,9.11-3.42,10,.32,2.26-2.9,5.2-3.46,8,.33a44.24,44.24,0,0,0,4.42-1l1.84,2.45c-1.55,1.09-5,5.87-10.2,1.79-2,2.36-7.07,4-8.86-1.68-5.25,6.36-9.91,3.11-10.61-2.5l2.17-1.85A25.43,25.43,0,0,0,60.52,92.24Z"/></svg>