<svg id="Слой_1" data-name="Слой 1" xmlns="http://www.w3.org/2000/svg" viewBox="0 0 150 180">
  <defs>
    <style>
      .cls-1 {
        fill-rule: evenodd;
      }
    </style>
  </defs>
  <title>Монтажная область 15</title>
  <path class="cls-1"
    d="M127,105.53l7.24,1.89c-4.68,8.63-19.68,14.15-19.68,14.15l4.3,3.91c-5.15,6.15-20.74,9-20.74,9l3,4.14c-5.09,5.89-19.79,5.85-19.79,5.85s-3.06,6.91-6.25,10c-3.49-2.64-6.64-10-6.64-10s-12.93-.75-19.38-5.42l2.93-4.57s-17.09-3.53-20.74-9l4.3-3.91s-15.63-3.67-19.68-14.15L23,105.53S9.89,96.45,7.37,86.93c14.87,0,23.16,1.6,30,3.5.49,13.69,8.49,27.21,23.45,28.4,1.59,6,5.73,12.47,14.19,19.4,8.47-6.73,12.47-13.19,13.88-19.4,14.81-1.16,23.13-14.15,23.82-27.64a101.77,101.77,0,0,1,29.88-4.26C137.87,100.79,127,105.53,127,105.53Zm-37.46,8.9c.3-6.31-1.71-12.35-3.9-18.11a113.65,113.65,0,0,0,22.13-3.78C106.74,102.32,102.05,112.63,89.51,114.43ZM75,132.27c-21.84-18.64-4-32.63-4-45.64,0-10.74-1.57-19-1.57-23.95a4.61,4.61,0,0,1,3-4.47l1-13.13,2.69-2,1.27,15.13a4.66,4.66,0,0,1,3.1,4.44c0,5.44-1.6,13.21-1.6,23.95C78.94,99.65,96.16,114.82,75,132.27ZM60.12,114.41c-12.59-1.91-17-12.66-17.86-22.56a90.54,90.54,0,0,0,21.81,4.44C61.74,102,59.65,108,60.12,114.41Z" />
</svg>