<svg id="Слой_1" data-name="Слой 1" xmlns="http://www.w3.org/2000/svg" viewBox="0 0 150 190"><defs><style>.cls-1{fill-rule:evenodd;}</style></defs><title>Монтажная область 47</title><path class="cls-1" d="M65.58,76.74l-.72-5.09,7.77-.43-.22-7.64,6.18-1.43.11,8.74,7.59-.42V77.1L78.78,77l.07,5.14c3.92,1.19,7.39,4.75,8.56,10.75l-23.23.28c1.1-6.17,4.69-9.87,8.76-11.06l-.15-5.21Zm30,21.35c5.62,4.48,10,11.21,11.79,20.24l-63.13.53c1.71-9.79,6.63-17,13-21.6Zm-2,14.08,5.7-1.76-3.19-7.1-5.6.66Zm-17.45,0c5.81,0,5.85-9.06-.1-9.06S69.81,112.14,76.18,112.14Zm-22.56-2.4,5.68,1.85,3.21-8.16-5.59-.75ZM35.09,147.55c-8.71,0-8-24.13,1.06-24.13,12,0,74.23,1.39,78.05,1.37,9.58,0,8.59,22.76.33,22.8C111.16,147.61,52.85,147.53,35.09,147.55Z"/></svg>